<svg version="1.1" id="Layer_1" xmlns="http://www.w3.org/2000/svg" xmlns:xlink="http://www.w3.org/1999/xlink" x="0px" y="0px"
	 width="100%" viewBox="0 0 448 400" enable-background="new 0 0 448 400" xml:space="preserve">
<path fill="#000000" opacity="1.000000" stroke="none" 
	d="
M201.741302,305.420776 
	C180.318527,299.932526 160.286880,291.700531 140.124466,283.842102 
	C133.292206,281.179138 126.230385,279.296082 119.112076,277.604431 
	C115.188507,276.671997 112.781136,277.536316 111.410324,282.015137 
	C107.865440,293.597412 104.941971,305.526855 96.606674,315.017944 
	C86.577332,326.437958 71.083534,325.486664 63.853378,312.922302 
	C59.543800,305.433258 61.244793,293.935974 67.755142,286.412720 
	C76.383835,276.441559 88.015282,273.422668 100.434128,272.751678 
	C112.032600,272.125031 109.857285,274.535248 113.759216,262.508606 
	C114.067619,261.558014 114.321136,260.587128 114.675598,259.654358 
	C117.147064,253.150528 118.487030,248.300720 110.771400,242.699463 
	C100.658394,235.357803 97.731972,222.624207 96.947838,210.568161 
	C96.235962,199.623016 97.463791,188.523804 98.216431,177.518478 
	C99.137024,164.057434 102.097198,150.925507 104.910469,137.748810 
	C106.022186,132.541779 103.266487,127.347603 100.367691,122.872650 
	C96.021614,116.163483 91.354652,109.698296 90.124069,101.481987 
	C88.926788,93.487915 89.637238,85.991257 96.320847,80.562576 
	C103.224869,74.954857 111.188545,74.190285 119.420067,77.268074 
	C124.205338,79.057289 126.932770,82.717644 128.108383,87.610725 
	C125.734299,88.780907 125.242508,87.140518 124.444496,86.238472 
	C119.173851,80.280762 112.625145,78.874626 105.573875,82.231468 
	C98.745651,85.482117 94.645424,93.217270 95.660057,100.213203 
	C96.549072,106.342987 99.788376,111.393410 102.489380,116.721062 
	C104.128860,119.954887 105.645325,123.251076 107.473633,127.052765 
	C109.303551,123.721771 110.494568,121.030098 108.590950,117.562782 
	C103.015442,107.407318 105.112122,99.110924 114.645515,92.577446 
	C115.168884,92.218765 115.615570,91.748192 116.136841,91.295975 
	C110.637733,87.571350 109.749321,88.009201 100.262985,98.926880 
	C98.657600,94.892372 101.007591,90.144333 105.918678,87.499832 
	C111.778931,84.344223 119.113319,85.273895 121.717384,89.846992 
	C123.654778,93.249313 124.675331,96.938820 120.743607,99.770424 
	C118.437859,99.238777 120.648674,97.176437 119.009766,96.408936 
	C114.761658,99.038628 109.934067,101.216728 109.799843,107.882469 
	C112.638443,104.773117 115.399010,102.267410 119.272034,105.492561 
	C124.169197,109.570541 124.687508,112.490120 121.455399,117.348434 
	C120.794136,118.342407 120.337502,119.306946 120.166924,120.517174 
	C119.297592,126.684868 118.988655,126.848869 112.634560,124.767677 
	C111.625618,128.365265 107.968330,132.020416 112.051918,135.514175 
	C117.497643,140.173355 122.761002,137.917465 127.431259,133.167450 
	C128.593979,142.078491 120.401314,145.204666 107.951797,140.840302 
	C105.647110,146.727615 105.010986,153.007294 103.830826,159.123932 
	C101.431427,171.559723 99.617622,184.281799 101.260139,196.751404 
	C102.404984,205.442764 103.846863,214.418091 107.071327,222.802902 
	C108.084648,225.437897 109.150009,228.085831 110.519371,230.545334 
	C117.109612,242.382065 127.970955,245.799896 140.203049,239.959381 
	C142.304703,238.955887 144.463013,237.961975 146.335968,236.605713 
	C162.693741,224.760620 177.759262,211.657013 187.482849,193.477310 
	C187.854370,192.782639 188.028046,191.982147 188.404327,190.919052 
	C177.521255,189.091629 168.193787,182.870911 156.934753,182.972534 
	C144.159424,183.087830 133.828888,187.099442 126.747765,198.136597 
	C126.080956,199.175949 125.769569,200.716049 123.118271,200.968414 
	C126.056702,193.571518 130.422012,188.027283 136.893951,184.423462 
	C148.571594,177.920975 160.872879,178.580048 173.236267,182.150925 
	C178.651443,183.714951 183.713074,186.257629 189.420334,187.111267 
	C199.692490,188.647690 205.308029,182.915878 202.461548,173.070129 
	C201.169708,168.601730 201.610077,165.158478 206.402618,163.322495 
	C209.776810,162.029877 210.871323,159.912750 208.649368,156.785767 
	C207.071259,154.564865 207.330185,152.810043 209.536987,151.273407 
	C212.742691,149.041260 213.359818,146.657578 210.586548,143.417480 
	C207.908844,140.289047 207.830078,137.364136 212.570129,135.957672 
	C212.880844,135.865479 213.148453,135.631012 213.439362,135.468552 
	C222.291183,130.524673 222.286728,130.314453 215.932358,122.639603 
	C212.417099,118.393837 209.487381,113.725281 207.202652,108.701721 
	C204.695328,103.188728 204.423416,97.404465 206.050446,91.644989 
	C207.625977,86.067871 209.794617,80.664139 211.402878,74.948120 
	C212.484634,78.029549 212.782318,81.246147 211.427628,84.167763 
	C205.005875,98.017319 209.944168,109.331207 219.015457,119.823601 
	C219.668533,120.578987 220.248047,121.397751 220.866730,122.183121 
	C227.057648,130.042023 226.674973,132.198273 218.142715,137.806259 
	C216.916321,138.612320 215.762054,139.528183 214.207794,140.660263 
	C217.181229,145.152115 218.167038,149.597809 214.055420,153.836624 
	C213.271530,154.644760 213.604630,155.729218 214.029984,156.667023 
	C216.393539,161.878311 213.520020,164.923187 209.444672,167.235397 
	C207.338089,168.430573 206.352783,169.391312 206.847092,172.227310 
	C209.007431,184.622543 206.948456,187.680664 194.797440,191.275223 
	C193.591736,191.631897 192.687393,192.202545 192.039215,193.227676 
	C185.982025,202.807831 178.301590,211.408844 172.647263,221.049973 
	C165.296188,233.584198 154.547150,240.999222 142.358063,247.106049 
	C136.867340,249.856949 130.716232,251.212555 124.404129,249.754562 
	C122.395645,249.290634 121.115623,249.939987 120.557106,251.855743 
	C118.567131,258.681458 116.627113,265.521729 114.646912,272.430786 
	C119.284561,274.926086 124.034386,275.139069 128.457428,276.421570 
	C145.924774,281.486389 162.333878,289.403961 179.546036,295.152618 
	C197.089752,301.012024 214.826248,306.098785 233.206421,308.489960 
	C245.161285,310.045258 257.119263,309.731354 268.830505,306.546082 
	C286.369385,301.775818 299.781494,286.121368 302.144043,267.479767 
	C295.590424,265.267334 290.898987,260.994720 289.293427,253.788834 
	C287.232300,244.538254 293.169189,235.491440 303.266083,232.786774 
	C310.833069,230.759781 320.446442,236.940857 322.798615,245.345551 
	C325.378906,254.565430 320.727844,264.078339 311.817688,266.441223 
	C307.530975,267.578003 305.789154,269.605103 304.555420,273.791077 
	C297.464447,297.850891 281.435394,310.484711 256.293945,312.359772 
	C237.782669,313.740356 219.868927,310.343933 201.741302,305.420776 
M86.917259,278.345490 
	C77.289398,281.507233 69.579582,286.906799 66.073769,296.871246 
	C63.508884,304.161285 66.199745,312.605347 72.018593,316.478088 
	C78.212044,320.600067 85.329926,320.488922 90.867783,315.382294 
	C102.089371,305.034515 105.185265,290.825043 109.247665,276.590088 
	C101.425186,275.932251 94.510338,276.257629 86.917259,278.345490 
M308.530457,258.015991 
	C307.007507,259.504578 306.947052,261.105103 308.042725,262.824951 
	C315.021118,261.585602 319.867432,256.125214 319.577240,249.944077 
	C319.265961,243.313477 313.160522,237.472168 306.367828,237.306137 
	C300.598206,237.165131 294.494934,242.438660 293.443695,248.473267 
	C292.407135,254.423584 296.556305,260.558136 302.859985,262.234619 
	C304.656555,259.537170 303.316193,257.853058 301.211121,256.033478 
	C298.210144,253.439499 298.001343,249.875168 299.184174,246.410995 
	C300.149139,243.584915 302.289886,241.857544 305.546417,241.663010 
	C309.885345,241.403824 313.046112,242.883881 314.449219,247.166306 
	C315.778656,251.223938 313.853119,254.913635 308.530457,258.015991 
z"/>
<path fill="#000000" opacity="1.000000" stroke="none" 
	d="
M239.376617,203.778229 
	C239.183151,201.597565 237.330856,199.065582 240.265411,198.333984 
	C243.065247,197.635956 243.073715,200.367218 243.529144,202.275177 
	C244.596085,206.745209 245.719971,211.201614 246.965408,216.249664 
	C250.549469,212.524384 251.934967,208.170151 254.389633,204.514938 
	C255.408920,202.997116 256.263397,201.369110 257.269958,199.842087 
	C258.182404,198.457870 259.453705,197.554886 261.014435,198.733917 
	C262.472717,199.835571 261.499207,201.246078 260.848450,202.303085 
	C258.305969,206.432678 255.293304,210.427124 258.916473,215.878922 
	C264.050934,210.575394 265.112488,202.057205 272.074951,197.643906 
	C273.722534,201.187485 272.019714,202.743011 271.105103,204.357803 
	C267.988007,209.861145 264.698822,215.267303 261.454132,220.697922 
	C260.535583,222.235352 259.874390,224.344666 257.622772,224.108841 
	C255.023560,223.836609 255.035538,221.461777 254.644012,219.540955 
	C254.414597,218.415436 254.342072,217.232162 253.212234,216.409607 
	C251.360565,217.187851 251.028336,219.181229 249.966599,220.582138 
	C248.817902,222.097794 248.327972,224.629913 245.713455,224.070557 
	C243.220459,223.537201 243.437408,220.983948 242.966171,219.186935 
	C241.661591,214.212143 240.619843,209.168427 239.376617,203.778229 
z"/>
<path fill="#000000" opacity="1.000000" stroke="none" 
	d="
M335.586365,251.726288 
	C336.220490,248.049164 336.888763,244.803940 337.394745,241.533615 
	C337.676636,239.711945 337.564636,237.737778 339.973938,237.308105 
	C342.480042,236.861160 343.453827,238.681107 344.471497,240.448837 
	C347.031677,244.895844 349.623383,249.324707 352.587402,254.422928 
	C354.575165,249.397537 354.817688,244.685913 355.712952,240.138596 
	C356.028625,238.535049 356.554352,237.024200 358.448364,237.305283 
	C360.676056,237.635864 360.632965,239.420731 360.297577,241.186890 
	C359.185730,247.042709 358.179230,252.920959 356.922455,258.745361 
	C356.542145,260.508026 356.845215,263.012115 354.030853,263.354065 
	C351.338257,263.681152 350.841614,261.310730 349.873077,259.731049 
	C347.297791,255.530701 344.897827,251.222855 341.978333,246.180893 
	C339.449646,251.097061 339.652985,255.633530 338.523102,259.807587 
	C338.059692,261.519501 338.355042,263.853119 335.546722,263.324127 
	C332.477570,262.746033 334.094757,260.635681 334.373260,259.006561 
	C334.764130,256.719879 335.159332,254.433945 335.586365,251.726288 
z"/>
<path fill="#000000" opacity="1.000000" stroke="none" 
	d="
M348.730042,221.416367 
	C345.844177,216.415024 343.169373,211.733963 340.102203,206.366257 
	C338.301453,211.486923 338.064545,215.954285 337.203674,220.289261 
	C336.861420,222.012665 336.721222,224.419846 334.206879,224.070312 
	C331.369385,223.675858 332.533600,221.322861 332.812897,219.673950 
	C333.726654,214.279953 334.665985,208.886826 335.783630,203.532623 
	C336.197449,201.550323 335.978333,198.815445 338.732849,198.323792 
	C341.454346,197.838058 342.246277,200.251205 343.318390,202.121368 
	C345.705475,206.285248 348.151154,210.415512 351.055969,215.385941 
	C352.934662,211.239105 353.127991,207.659042 353.725525,204.183289 
	C353.977264,202.719131 354.269745,201.251251 354.697906,199.831558 
	C355.033569,198.718674 356.002228,198.376801 357.093506,198.564957 
	C358.263336,198.766678 358.887909,199.615280 358.701813,200.706207 
	C357.473999,207.903976 356.718323,215.249420 354.679962,222.216492 
	C353.465942,226.365967 350.711273,224.247910 348.730042,221.416367 
z"/>
<path fill="#000000" opacity="1.000000" stroke="none" 
	d="
M361.559021,207.724762 
	C363.929474,197.140945 361.024261,198.146835 372.743195,198.066788 
	C374.575714,198.054260 376.408447,197.973267 378.240295,197.993729 
	C379.861145,198.011856 381.333435,198.400894 381.269897,200.442871 
	C381.210419,202.356400 379.663025,202.299789 378.346222,202.330444 
	C375.848145,202.388596 373.347107,202.397049 370.848846,202.348190 
	C368.394592,202.300186 366.526428,202.932983 366.369293,205.801117 
	C366.193054,209.017380 368.632233,208.259018 370.498474,208.654144 
	C372.615265,209.102325 376.460724,207.058197 376.397186,210.893097 
	C376.344330,214.082672 372.715576,212.576447 370.619965,212.958099 
	C369.645630,213.135544 368.619446,213.011780 367.634369,213.150040 
	C365.085388,213.507797 364.500549,215.442276 364.497711,217.543045 
	C364.494476,219.925613 366.427124,219.900604 368.095856,219.974289 
	C370.424286,220.077087 372.760986,220.023361 375.085480,220.172134 
	C376.309479,220.250473 377.377289,220.776199 377.332031,222.303375 
	C377.287231,223.814026 376.264648,224.294113 374.986908,224.302734 
	C370.489380,224.333084 365.990601,224.361359 361.494019,224.286499 
	C358.801788,224.241684 358.752533,222.357956 359.118958,220.391449 
	C359.880341,216.305328 360.697845,212.229660 361.559021,207.724762 
z"/>
<path fill="#000000" opacity="1.000000" stroke="none" 
	d="
M283.312256,208.623474 
	C283.898407,208.627518 284.075043,208.591217 284.229828,208.633942 
	C286.064941,209.140549 289.341675,207.320267 289.383209,210.658279 
	C289.421692,213.749817 286.269440,212.807541 284.263947,213.010941 
	C283.107910,213.128189 281.932953,213.052399 280.774811,213.156052 
	C278.219025,213.384796 277.519104,215.205795 277.451721,217.359894 
	C277.377655,219.725769 279.187256,219.886795 280.899292,219.974930 
	C283.389069,220.103088 285.889221,220.075516 288.371826,220.276642 
	C289.531677,220.370621 290.766693,220.812912 290.658600,222.364685 
	C290.557495,223.815842 289.465668,224.314758 288.206085,224.291779 
	C282.940277,224.195755 277.632721,224.857391 271.870361,223.788971 
	C273.195679,215.920822 274.479065,208.438416 275.703003,200.946289 
	C276.038391,198.893158 277.413727,198.109177 279.194855,198.069183 
	C283.353271,197.975861 287.515564,198.040543 291.676178,198.066208 
	C293.172302,198.075439 294.338104,198.638443 294.390411,200.324097 
	C294.461548,202.615768 292.742493,202.395844 291.242371,202.418961 
	C288.415680,202.462509 285.578217,202.366730 282.765808,202.588974 
	C280.736694,202.749313 279.387451,203.939743 279.386841,206.185822 
	C279.386200,208.666870 281.206482,208.553162 283.312256,208.623474 
z"/>
<path fill="#000000" opacity="1.000000" stroke="none" 
	d="
M395.270386,223.635162 
	C390.812439,224.671783 386.675171,225.450317 382.856110,222.979034 
	C381.361389,222.011826 379.536652,220.739212 381.082062,218.571625 
	C382.347107,216.797241 383.917786,217.341965 385.380493,218.563828 
	C386.825684,219.771057 388.525452,220.524429 390.400177,220.509460 
	C392.748627,220.490738 394.777588,219.440765 395.407715,217.126480 
	C396.085266,214.638092 393.682983,214.315765 392.127808,213.519943 
	C391.536957,213.217575 390.924133,212.941696 390.294952,212.733307 
	C386.256989,211.396011 382.665558,209.691742 383.895538,204.374115 
	C384.894440,200.055573 389.936432,197.180878 394.965668,198.003738 
	C395.779755,198.136917 396.584137,198.401535 397.357452,198.698074 
	C399.396088,199.479858 402.081329,200.405136 401.196289,202.996765 
	C400.096954,206.215866 397.737427,204.206757 395.899475,203.265610 
	C394.357513,202.476044 392.780640,201.993362 391.136261,202.809631 
	C389.928375,203.409210 388.775330,204.246307 388.707916,205.732193 
	C388.644745,207.123825 389.861053,207.676086 390.903778,208.160492 
	C391.798981,208.576370 392.813049,208.728333 393.735046,209.096039 
	C396.448425,210.178146 399.787079,210.582840 400.269501,214.357224 
	C400.786316,218.400726 399.323181,221.522980 395.270386,223.635162 
z"/>
<path fill="#000000" opacity="1.000000" stroke="none" 
	d="
M405.273926,222.913269 
	C403.773315,221.529922 402.204102,220.278198 403.595184,218.510559 
	C404.949738,216.789291 406.521698,217.842773 407.993195,218.773010 
	C409.096802,219.470657 410.296143,220.319870 411.524384,220.455887 
	C414.316284,220.765076 417.254791,220.091080 418.059082,217.155334 
	C418.841034,214.301117 415.716339,214.111908 413.945709,213.131531 
	C413.801208,213.051514 413.643066,212.993622 413.487061,212.937195 
	C410.240601,211.763260 406.399811,211.146240 406.006439,206.729584 
	C405.713623,203.442184 407.400299,200.755402 410.231659,199.376633 
	C414.077454,197.503860 418.180511,196.878067 422.059753,199.617126 
	C423.495941,200.631195 424.812408,201.871170 423.598419,203.717819 
	C422.539795,205.328171 420.883789,204.772644 419.590240,203.975403 
	C416.156128,201.858902 413.140045,201.464905 410.737305,205.496323 
	C411.890259,208.642593 414.942322,208.604965 417.251740,209.542709 
	C420.492310,210.858551 423.740295,212.182709 423.076935,216.402084 
	C422.437897,220.466415 420.043396,223.482040 415.742249,224.187881 
	C412.315735,224.750214 408.788635,225.180130 405.273926,222.913269 
z"/>
<path fill="#000000" opacity="1.000000" stroke="none" 
	d="
M271.517456,257.686707 
	C271.230347,259.224457 271.114349,260.389923 270.810883,261.504333 
	C270.455292,262.810059 269.477600,263.377808 268.144318,263.158081 
	C266.580048,262.900177 266.455902,261.672516 266.653656,260.486877 
	C267.770813,253.789398 268.924103,247.097519 270.147369,240.418793 
	C270.285797,239.662964 270.798737,238.840729 271.382874,238.328522 
	C272.772919,237.109741 282.625244,237.464050 284.506622,238.680298 
	C287.322235,240.500488 287.637848,243.293869 287.132721,246.184219 
	C286.358124,250.616745 283.446014,253.111282 279.150116,254.033112 
	C278.023865,254.274796 276.837158,254.290955 275.676880,254.305710 
	C273.582489,254.332367 272.217499,255.280197 271.517456,257.686707 
M274.057678,244.520462 
	C273.735565,246.340195 272.109039,248.718674 275.046753,249.517792 
	C277.705933,250.241150 280.384705,249.527771 281.996399,246.887848 
	C283.142731,245.010162 282.760559,243.115860 280.869690,242.198181 
	C278.441620,241.019852 275.733612,240.253693 274.057678,244.520462 
z"/>
<path fill="#000000" opacity="1.000000" stroke="none" 
	d="
M375.741028,236.915131 
	C377.196289,236.955399 378.194305,236.980438 379.191803,237.019745 
	C380.758331,237.081436 382.361816,237.208328 382.238464,239.356201 
	C382.135590,241.148087 380.684448,241.457184 379.330231,241.312958 
	C374.733307,240.823486 373.762970,243.661194 373.295044,247.353638 
	C372.774384,251.462784 371.986664,255.540421 371.232880,259.616577 
	C370.910309,261.361115 370.788696,263.744293 368.213104,263.288391 
	C365.455658,262.800293 366.592590,260.387543 366.833160,258.775269 
	C367.444580,254.677750 368.153503,250.580414 369.123535,246.555344 
	C369.887482,243.385590 369.722778,241.246506 365.718842,241.292587 
	C364.356537,241.308273 362.906921,241.075333 362.981537,239.203827 
	C363.050842,237.466522 364.425354,237.070679 365.802277,237.024612 
	C368.960480,236.918991 372.122864,236.937912 375.741028,236.915131 
z"/>
<path fill="#000000" opacity="1.000000" stroke="none" 
	d="
M310.628662,223.029633 
	C305.806152,225.389084 300.959747,224.105515 296.207489,224.224136 
	C293.970551,224.279984 293.540619,222.511490 293.865387,220.681656 
	C295.027130,214.135651 296.290405,207.607697 297.452332,201.061737 
	C297.741302,199.433716 298.228485,197.971329 300.154175,198.178604 
	C302.549072,198.436401 302.328766,200.361969 302.050873,202.020676 
	C301.364075,206.119644 300.776062,210.253677 299.751434,214.272400 
	C298.686462,218.449112 299.889435,220.135773 304.282898,220.105270 
	C306.595886,220.089233 309.893524,218.629623 310.628662,223.029633 
z"/>
<path fill="#000000" opacity="1.000000" stroke="none" 
	d="
M319.418274,224.347992 
	C317.177673,224.349899 315.376007,224.349899 313.988647,224.349899 
	C312.407166,222.771713 313.021149,221.460739 313.251892,220.189301 
	C314.408600,213.815536 315.595856,207.447159 316.713318,201.066544 
	C317.015839,199.339142 317.784302,198.173798 319.646851,198.485474 
	C321.427521,198.783447 321.418518,200.386047 321.228271,201.668533 
	C320.595123,205.936325 320.172882,210.288300 318.974762,214.405746 
	C317.536713,219.347809 319.645599,220.382538 323.877472,220.043961 
	C325.198029,219.938278 326.549408,219.978683 327.865784,220.131775 
	C329.013550,220.265274 330.299896,220.529617 330.191589,222.136551 
	C330.097961,223.525970 329.125336,224.218658 327.848389,224.265488 
	C325.187256,224.363083 322.521210,224.327164 319.418274,224.347992 
z"/>
<path fill="#000000" opacity="1.000000" stroke="none" 
	d="
M327.593384,247.745850 
	C328.055389,244.864639 328.425049,242.401199 328.897583,239.957642 
	C329.165863,238.570374 329.845886,237.295853 331.481903,237.436783 
	C333.266663,237.590515 333.471008,239.131042 333.252899,240.457260 
	C332.121735,247.335999 330.905731,254.201279 329.653961,261.059326 
	C329.384735,262.534180 328.414368,263.488922 326.800537,263.131683 
	C324.998474,262.732819 325.182739,261.314758 325.429138,259.944672 
	C326.134827,256.020538 326.839203,252.096191 327.593384,247.745850 
z"/>
</svg>